<svg width="24" height="24" viewBox="0 0 24 24" fill="none" xmlns="http://www.w3.org/2000/svg">
<rect width="24" height="24" rx="4" fill="white"/>
<path d="M18.8638 10.629H18.3V10.6H12V13.4H15.956C15.3789 15.03 13.828 16.2 12 16.2C9.68055 16.2 7.8 14.3194 7.8 12C7.8 9.68055 9.68055 7.8 12 7.8C13.0707 7.8 14.0447 8.2039 14.7864 8.86365L16.7663 6.8837C15.5161 5.71855 13.8438 5 12 5C8.13425 5 5 8.13425 5 12C5 15.8658 8.13425 19 12 19C15.8658 19 19 15.8658 19 12C19 11.5307 18.9517 11.0725 18.8638 10.629Z" fill="#FFC107"/>
<path d="M5.80664 8.74185L8.10649 10.4285C8.72879 8.8878 10.2359 7.8 11.9995 7.8C13.0702 7.8 14.0442 8.2039 14.7859 8.86365L16.7658 6.8837C15.5156 5.71855 13.8433 5 11.9995 5C9.31084 5 6.97914 6.51795 5.80664 8.74185Z" fill="#FF3D00"/>
<path d="M11.9993 19.001C13.8074 19.001 15.4503 18.3091 16.6925 17.1838L14.526 15.3505C13.8232 15.8829 12.9496 16.201 11.9993 16.201C10.1786 16.201 8.63268 15.0401 8.05028 13.4199L5.76758 15.1787C6.92608 17.4456 9.27878 19.001 11.9993 19.001Z" fill="#4CAF50"/>
<path d="M18.8639 10.6296H18.3V10.6006H12V13.4006H15.9561C15.6789 14.1835 15.1752 14.8587 14.5256 15.3504L14.5266 15.3497L16.6932 17.183C16.5399 17.3223 19 15.5006 19 12.0006C19 11.5312 18.9517 11.0731 18.8639 10.6296Z" fill="#1976D2"/>
</svg>
